font.ufo
<glyph name="ampersand" format="1" >
	<unicode hex="000026"/>
	<advance width="720"/>
	<outline>
		<contour>
			<point x="594" y="-13" type="curve"/>
			<point x="620" y="-13" />
			<point x="640" y="-10" />
			<point x="670" y="-3" type="curve"/>
			<point x="674" y="41" type="line"/>
			<point x="577" y="54" type="line"/>
			<point x="546" y="86" />
			<point x="520" y="115" />
			<point x="495" y="141" type="curve"/>
			<point x="541" y="210" />
			<point x="576" y="284" />
			<point x="599" y="375" type="curve"/>
			<point x="675" y="389" type="line"/>
			<point x="675" y="429" type="line"/>
			<point x="472" y="429" type="line"/>
			<point x="472" y="389" type="line"/>
			<point x="551" y="376" type="line"/>
			<point x="533" y="297" />
			<point x="505" y="232" />
			<point x="468" y="170" type="curve"/>
			<point x="429" y="212" />
			<point x="393" y="250" />
			<point x="353" y="294" type="curve"/>
			<point x="318" y="332" />
			<point x="294" y="359" />
			<point x="273" y="383" type="curve"/>
			<point x="375" y="438" />
			<point x="421" y="487" />
			<point x="421" y="556" type="curve"/>
			<point x="421" y="631" />
			<point x="368" y="684" />
			<point x="269" y="684" type="curve"/>
			<point x="175" y="684" />
			<point x="105" y="630" />
			<point x="105" y="542" type="curve"/>
			<point x="105" y="489" />
			<point x="124" y="438" />
			<point x="174" y="381" type="curve"/>
			<point x="175" y="379" />
			<point x="177" y="378" />
			<point x="178" y="376" type="curve"/>
			<point x="78" y="326" />
			<point x="27" y="259" />
			<point x="27" y="169" type="curve"/>
			<point x="27" y="68" />
			<point x="113" y="-13" />
			<point x="238" y="-13" type="curve"/>
			<point x="334" y="-13" />
			<point x="398" y="24" />
			<point x="442" y="72" type="curve"/>
			<point x="453" y="59" />
			<point x="465" y="47" />
			<point x="477" y="33" type="curve"/>
			<point x="510" y="-1" />
			<point x="541" y="-13" />
		</contour>
		<contour>
			<point x="222" y="443" type="curve"/>
			<point x="185" y="489" />
			<point x="177" y="520" />
			<point x="177" y="556" type="curve"/>
			<point x="177" y="609" />
			<point x="217" y="649" />
			<point x="268" y="649" type="curve"/>
			<point x="317" y="649" />
			<point x="355" y="613" />
			<point x="355" y="555" type="curve"/>
			<point x="355" y="497" />
			<point x="311" y="453" />
			<point x="249" y="410" type="curve"/>
			<point x="240" y="420" />
			<point x="231" y="431" />
		</contour>
		<contour>
			<point x="311" y="219" type="curve"/>
			<point x="345" y="181" />
			<point x="377" y="145" />
			<point x="413" y="104" type="curve"/>
			<point x="375" y="70" />
			<point x="321" y="51" />
			<point x="265" y="51" type="curve"/>
			<point x="168" y="51" />
			<point x="114" y="123" />
			<point x="114" y="196" type="curve"/>
			<point x="114" y="246" />
			<point x="133" y="306" />
			<point x="202" y="348" type="curve"/>
			<point x="235" y="310" />
			<point x="266" y="274" />
		</contour>
	</outline>
</glyph>
<glyph name="nine" format="1" >
	<unicode hex="000039"/>
	<advance width="500"/>
	<outline>
		<contour>
			<point x="86" y="-20" type="line"/>
			<point x="346" y="40" />
			<point x="450" y="208" />
			<point x="450" y="399" type="curve"/>
			<point x="450" y="558" />
			<point x="373" y="659" />
			<point x="242" y="659" type="curve"/>
			<point x="116" y="659" />
			<point x="29" y="577" />
			<point x="29" y="452" type="curve"/>
			<point x="29" y="330" />
			<point x="116" y="256" />
			<point x="223" y="256" type="curve"/>
			<point x="275" y="256" />
			<point x="320" y="272" />
			<point x="355" y="306" type="curve"/>
			<point x="336" y="167" />
			<point x="257" y="77" />
			<point x="76" y="18" type="curve"/>
		</contour>
		<contour>
			<point x="118" y="461" type="curve"/>
			<point x="118" y="562" />
			<point x="173" y="614" />
			<point x="237" y="614" type="curve"/>
			<point x="311" y="614" />
			<point x="360" y="544" />
			<point x="360" y="382" type="curve"/>
			<point x="360" y="373" />
			<point x="360" y="365" />
			<point x="359" y="356" type="curve"/>
			<point x="328" y="329" />
			<point x="294" y="316" />
			<point x="250" y="316" type="curve"/>
			<point x="176" y="316" />
			<point x="118" y="359" />
		</contour>
	</outline>
</glyph>
<glyph name="B" format="1" >
	<unicode hex="000042"/>
	<advance width="629"/>
	<outline>
		<contour>
			<point x="138" y="310" type="line"/>
			<point x="138" y="223" />
			<point x="138" y="136" />
			<point x="136" y="52" type="curve"/>
			<point x="44" y="41" type="line"/>
			<point x="44" y="0" type="line"/>
			<point x="319" y="0" type="line"/>
			<point x="511" y="0" />
			<point x="586" y="92" />
			<point x="586" y="183" type="curve"/>
			<point x="586" y="264" />
			<point x="530" y="329" />
			<point x="397" y="348" type="curve"/>
			<point x="508" y="371" />
			<point x="552" y="435" />
			<point x="552" y="506" type="curve"/>
			<point x="552" y="601" />
			<point x="473" y="669" />
			<point x="334" y="669" type="curve"/>
			<point x="44" y="669" type="line"/>
			<point x="44" y="628" type="line"/>
			<point x="136" y="617" type="line"/>
			<point x="138" y="531" />
			<point x="138" y="445" />
			<point x="138" y="359" type="curve"/>
		</contour>
		<contour>
			<point x="304" y="623" type="line"/>
			<point x="406" y="623" />
			<point x="458" y="590" />
			<point x="458" y="499" type="curve"/>
			<point x="458" y="408" />
			<point x="406" y="369" />
			<point x="285" y="369" type="curve"/>
			<point x="233" y="369" type="line"/>
			<point x="233" y="448" />
			<point x="233" y="537" />
			<point x="235" y="623" type="curve"/>
		</contour>
		<contour>
			<point x="288" y="323" type="line"/>
			<point x="426" y="323" />
			<point x="486" y="276" />
			<point x="486" y="183" type="curve"/>
			<point x="486" y="95" />
			<point x="424" y="47" />
			<point x="296" y="47" type="curve"/>
			<point x="235" y="47" type="line"/>
			<point x="233" y="132" />
			<point x="233" y="218" />
			<point x="233" y="323" type="curve"/>
		</contour>
	</outline>
</glyph>
<glyph name="F" format="1" >
	<unicode hex="000046"/>
	<advance width="579"/>
	<outline>
		<contour>
			<point x="138" y="310" type="line"/>
			<point x="138" y="223" />
			<point x="138" y="136" />
			<point x="136" y="52" type="curve"/>
			<point x="44" y="41" type="line"/>
			<point x="44" y="0" type="line"/>
			<point x="328" y="0" type="line"/>
			<point x="328" y="41" type="line"/>
			<point x="235" y="52" type="line"/>
			<point x="233" y="134" />
			<point x="233" y="219" />
			<point x="233" y="318" type="curve"/>
			<point x="388" y="318" type="line"/>
			<point x="402" y="214" type="line"/>
			<point x="448" y="214" type="line"/>
			<point x="448" y="460" type="line"/>
			<point x="402" y="460" type="line"/>
			<point x="388" y="365" type="line"/>
			<point x="233" y="365" type="line"/>
			<point x="233" y="447" />
			<point x="233" y="534" />
			<point x="235" y="619" type="curve"/>
			<point x="470" y="619" type="line"/>
			<point x="492" y="492" type="line"/>
			<point x="549" y="492" type="line"/>
			<point x="542" y="669" type="line"/>
			<point x="44" y="669" type="line"/>
			<point x="44" y="628" type="line"/>
			<point x="136" y="617" type="line"/>
			<point x="138" y="531" />
			<point x="138" y="445" />
			<point x="138" y="359" type="curve"/>
		</contour>
	</outline>
</glyph>
<glyph name="H" format="1" >
	<unicode hex="000048"/>
	<advance width="789"/>
	<outline>
		<contour>
			<point x="138" y="310" type="line"/>
			<point x="138" y="223" />
			<point x="138" y="136" />
			<point x="136" y="52" type="curve"/>
			<point x="44" y="41" type="line"/>
			<point x="44" y="0" type="line"/>
			<point x="326" y="0" type="line"/>
			<point x="326" y="41" type="line"/>
			<point x="235" y="51" type="line"/>
			<point x="233" y="133" />
			<point x="233" y="217" />
			<point x="233" y="319" type="curve"/>
			<point x="556" y="319" type="line"/>
			<point x="556" y="226" />
			<point x="556" y="137" />
			<point x="554" y="52" type="curve"/>
			<point x="462" y="41" type="line"/>
			<point x="462" y="0" type="line"/>
			<point x="744" y="0" type="line"/>
			<point x="744" y="41" type="line"/>
			<point x="652" y="52" type="line"/>
			<point x="650" y="138" />
			<point x="650" y="224" />
			<point x="650" y="310" type="curve"/>
			<point x="650" y="359" type="line"/>
			<point x="650" y="446" />
			<point x="650" y="533" />
			<point x="652" y="617" type="curve"/>
			<point x="744" y="628" type="line"/>
			<point x="744" y="669" type="line"/>
			<point x="462" y="669" type="line"/>
			<point x="462" y="628" type="line"/>
			<point x="554" y="617" type="line"/>
			<point x="556" y="536" />
			<point x="556" y="454" />
			<point x="556" y="366" type="curve"/>
			<point x="233" y="366" type="line"/>
			<point x="233" y="446" />
			<point x="233" y="533" />
			<point x="235" y="618" type="curve"/>
			<point x="326" y="628" type="line"/>
			<point x="326" y="669" type="line"/>
			<point x="44" y="669" type="line"/>
			<point x="44" y="628" type="line"/>
			<point x="136" y="617" type="line"/>
			<point x="138" y="531" />
			<point x="138" y="445" />
			<point x="138" y="359" type="curve"/>
		</contour>
	</outline>
</glyph>
<glyph name="K" format="1" >
	<unicode hex="00004B"/>
	<advance width="667"/>
	<outline>
		<contour>
			<point x="138" y="310" type="line"/>
			<point x="138" y="223" />
			<point x="138" y="136" />
			<point x="136" y="52" type="curve"/>
			<point x="44" y="41" type="line"/>
			<point x="44" y="0" type="line"/>
			<point x="326" y="0" type="line"/>
			<point x="326" y="41" type="line"/>
			<point x="231" y="52" type="line"/>
			<point x="229" y="114" />
			<point x="229" y="175" />
			<point x="229" y="229" type="curve"/>
			<point x="328" y="348" type="line"/>
			<point x="487" y="51" type="line"/>
			<point x="405" y="41" type="line"/>
			<point x="405" y="0" type="line"/>
			<point x="662" y="0" type="line"/>
			<point x="662" y="41" type="line"/>
			<point x="585" y="51" type="line"/>
			<point x="383" y="414" type="line"/>
			<point x="550" y="615" type="line"/>
			<point x="647" y="628" type="line"/>
			<point x="647" y="669" type="line"/>
			<point x="417" y="669" type="line"/>
			<point x="417" y="628" type="line"/>
			<point x="489" y="614" type="line"/>
			<point x="229" y="296" type="line"/>
			<point x="229" y="359" type="line"/>
			<point x="229" y="446" />
			<point x="229" y="532" />
			<point x="231" y="617" type="curve"/>
			<point x="326" y="628" type="line"/>
			<point x="326" y="669" type="line"/>
			<point x="44" y="669" type="line"/>
			<point x="44" y="628" type="line"/>
			<point x="136" y="617" type="line"/>
			<point x="138" y="531" />
			<point x="138" y="445" />
			<point x="138" y="359" type="curve"/>
		</contour>
	</outline>
</glyph>
<glyph name="L" format="1" >
	<unicode hex="00004C"/>
	<advance width="596"/>
	<outline>
		<contour>
			<point x="138" y="359" type="curve"/>
			<point x="138" y="309" type="line"/>
			<point x="138" y="224" />
			<point x="138" y="138" />
			<point x="136" y="52" type="curve"/>
			<point x="44" y="41" type="line"/>
			<point x="44" y="0" type="line"/>
			<point x="542" y="0" type="line"/>
			<point x="552" y="188" type="line"/>
			<point x="491" y="188" type="line"/>
			<point x="462" y="50" type="line"/>
			<point x="235" y="50" type="line"/>
			<point x="233" y="135" />
			<point x="233" y="219" />
			<point x="233" y="290" type="curve"/>
			<point x="233" y="359" type="line"/>
			<point x="233" y="445" />
			<point x="233" y="531" />
			<point x="235" y="617" type="curve"/>
			<point x="327" y="628" type="line"/>
			<point x="327" y="669" type="line"/>
			<point x="44" y="669" type="line"/>
			<point x="44" y="628" type="line"/>
			<point x="136" y="617" type="line"/>
			<point x="138" y="533" />
			<point x="138" y="446" />
		</contour>
	</outline>
</glyph>
<glyph name="N" format="1" >
	<unicode hex="00004E"/>
	<advance width="735"/>
	<outline>
		<contour>
			<point x="39" y="0" type="line"/>
			<point x="281" y="0" type="line"/>
			<point x="281" y="41" type="line"/>
			<point x="175" y="55" type="line"/>
			<point x="175" y="538" type="line"/>
			<point x="575" y="-7" type="line"/>
			<point x="610" y="-7" type="line"/>
			<point x="610" y="615" type="line"/>
			<point x="695" y="628" type="line"/>
			<point x="695" y="669" type="line"/>
			<point x="454" y="669" type="line"/>
			<point x="454" y="628" type="line"/>
			<point x="559" y="615" type="line"/>
			<point x="559" y="173" type="line"/>
			<point x="198" y="669" type="line"/>
			<point x="44" y="669" type="line"/>
			<point x="44" y="628" type="line"/>
			<point x="116" y="620" type="line"/>
			<point x="124" y="608" type="line"/>
			<point x="124" y="53" type="line"/>
			<point x="39" y="41" type="line"/>
		</contour>
	</outline>
</glyph>
<glyph name="U" format="1" >
	<unicode hex="000055"/>
	<advance width="727"/>
	<outline>
		<contour>
			<point x="218" y="281" type="curve"/>
			<point x="218" y="360" type="line"/>
			<point x="218" y="447" />
			<point x="218" y="532" />
			<point x="220" y="616" type="curve"/>
			<point x="322" y="628" type="line"/>
			<point x="322" y="669" type="line"/>
			<point x="39" y="669" type="line"/>
			<point x="39" y="628" type="line"/>
			<point x="122" y="618" type="line"/>
			<point x="124" y="532" />
			<point x="124" y="446" />
			<point x="124" y="360" type="curve"/>
			<point x="124" y="252" type="line"/>
			<point x="124" y="65" />
			<point x="222" y="-15" />
			<point x="367" y="-15" type="curve"/>
			<point x="504" y="-15" />
			<point x="606" y="63" />
			<point x="606" y="274" type="curve"/>
			<point x="606" y="617" type="line"/>
			<point x="693" y="628" type="line"/>
			<point x="693" y="669" type="line"/>
			<point x="453" y="669" type="line"/>
			<point x="453" y="628" type="line"/>
			<point x="555" y="615" type="line"/>
			<point x="555" y="298" type="line"/>
			<point x="555" y="121" />
			<point x="497" y="56" />
			<point x="384" y="56" type="curve"/>
			<point x="282" y="56" />
			<point x="218" y="110" />
		</contour>
	</outline>
</glyph>
<glyph name="X" format="1" >
	<unicode hex="000058"/>
	<advance width="648"/>
	<outline>
		<contour>
			<point x="10" y="0" type="line"/>
			<point x="239" y="0" type="line"/>
			<point x="239" y="41" type="line"/>
			<point x="161" y="52" type="line"/>
			<point x="308" y="284" type="line"/>
			<point x="448" y="52" type="line"/>
			<point x="356" y="41" type="line"/>
			<point x="356" y="0" type="line"/>
			<point x="639" y="0" type="line"/>
			<point x="639" y="41" type="line"/>
			<point x="553" y="51" type="line"/>
			<point x="365" y="363" type="line"/>
			<point x="529" y="617" type="line"/>
			<point x="617" y="628" type="line"/>
			<point x="617" y="669" type="line"/>
			<point x="388" y="669" type="line"/>
			<point x="388" y="628" type="line"/>
			<point x="473" y="616" type="line"/>
			<point x="340" y="404" type="line"/>
			<point x="212" y="618" type="line"/>
			<point x="300" y="628" type="line"/>
			<point x="300" y="669" type="line"/>
			<point x="19" y="669" type="line"/>
			<point x="19" y="628" type="line"/>
			<point x="107" y="618" type="line"/>
			<point x="284" y="324" type="line"/>
			<point x="105" y="53" type="line"/>
			<point x="10" y="41" type="line"/>
		</contour>
	</outline>
</glyph>
<glyph name="Z" format="1" >
	<unicode hex="00005A"/>
	<advance width="551"/>
	<outline>
		<contour>
			<point x="470" y="178" type="line"/>
			<point x="443" y="50" type="line"/>
			<point x="131" y="50" type="line"/>
			<point x="509" y="634" type="line"/>
			<point x="509" y="669" type="line"/>
			<point x="38" y="669" type="line"/>
			<point x="30" y="491" type="line"/>
			<point x="91" y="491" type="line"/>
			<point x="118" y="619" type="line"/>
			<point x="399" y="619" type="line"/>
			<point x="20" y="36" type="line"/>
			<point x="20" y="0" type="line"/>
			<point x="523" y="0" type="line"/>
			<point x="531" y="178" type="line"/>
		</contour>
	</outline>
</glyph>
<glyph name="c" format="1" >
	<unicode hex="000063"/>
	<advance width="488"/>
	<outline>
		<contour>
			<point x="277" y="442" type="curve"/>
			<point x="294" y="442" />
			<point x="312" y="440" />
			<point x="331" y="434" type="curve"/>
			<point x="349" y="368" type="line"/>
			<point x="356" y="340" />
			<point x="370" y="320" />
			<point x="404" y="320" type="curve"/>
			<point x="429" y="320" />
			<point x="445" y="332" />
			<point x="450" y="358" type="curve"/>
			<point x="437" y="432" />
			<point x="363" y="488" />
			<point x="273" y="488" type="curve"/>
			<point x="153" y="488" />
			<point x="42" y="394" />
			<point x="42" y="236" type="curve"/>
			<point x="42" y="82" />
			<point x="130" y="-13" />
			<point x="267" y="-13" type="curve"/>
			<point x="361" y="-13" />
			<point x="425" y="32" />
			<point x="453" y="115" type="curve"/>
			<point x="428" y="128" type="line"/>
			<point x="397" y="79" />
			<point x="347" y="52" />
			<point x="290" y="52" type="curve"/>
			<point x="196" y="52" />
			<point x="130" y="120" />
			<point x="130" y="246" type="curve"/>
			<point x="130" y="374" />
			<point x="192" y="442" />
		</contour>
	</outline>
</glyph>
<glyph name="e" format="1" >
	<unicode hex="000065"/>
	<advance width="510"/>
	<outline>
		<contour>
			<point x="275" y="488" type="curve"/>
			<point x="150" y="488" />
			<point x="45" y="386" />
			<point x="45" y="233" type="curve"/>
			<point x="45" y="80" />
			<point x="133" y="-13" />
			<point x="268" y="-13" type="curve"/>
			<point x="359" y="-13" />
			<point x="423" y="32" />
			<point x="460" y="103" type="curve"/>
			<point x="436" y="122" type="line"/>
			<point x="400" y="80" />
			<point x="361" y="52" />
			<point x="297" y="52" type="curve"/>
			<point x="201" y="52" />
			<point x="137" y="117" />
			<point x="135" y="240" type="curve"/>
			<point x="454" y="240" type="line"/>
			<point x="458" y="253" />
			<point x="461" y="273" />
			<point x="461" y="296" type="curve"/>
			<point x="461" y="417" />
			<point x="379" y="488" />
		</contour>
		<contour>
			<point x="269" y="442" type="curve"/>
			<point x="331" y="442" />
			<point x="378" y="391" />
			<point x="378" y="334" type="curve"/>
			<point x="378" y="305" />
			<point x="367" y="282" />
			<point x="319" y="282" type="curve"/>
			<point x="137" y="282" type="line"/>
			<point x="148" y="398" />
			<point x="213" y="442" />
		</contour>
	</outline>
</glyph>
<glyph name="h" format="1" >
	<unicode hex="000068"/>
	<advance width="601"/>
	<outline>
		<contour>
			<point x="371" y="488" type="curve"/>
			<point x="308" y="488" />
			<point x="237" y="450" />
			<point x="188" y="395" type="curve"/>
			<point x="188" y="589" type="line"/>
			<point x="192" y="731" type="line"/>
			<point x="178" y="739" type="line"/>
			<point x="25" y="694" type="line"/>
			<point x="25" y="659" type="line"/>
			<point x="107" y="649" type="line"/>
			<point x="107" y="210" type="line"/>
			<point x="107" y="166" />
			<point x="106" y="100" />
			<point x="105" y="50" type="curve"/>
			<point x="30" y="36" type="line"/>
			<point x="30" y="0" type="line"/>
			<point x="262" y="0" type="line"/>
			<point x="262" y="36" type="line"/>
			<point x="193" y="50" type="line"/>
			<point x="192" y="100" />
			<point x="191" y="166" />
			<point x="191" y="210" type="curve"/>
			<point x="191" y="351" type="line"/>
			<point x="242" y="397" />
			<point x="283" y="416" />
			<point x="332" y="416" type="curve"/>
			<point x="391" y="416" />
			<point x="414" y="387" />
			<point x="414" y="295" type="curve"/>
			<point x="414" y="210" type="line"/>
			<point x="414" y="164" />
			<point x="413" y="99" />
			<point x="412" y="49" type="curve"/>
			<point x="339" y="36" type="line"/>
			<point x="339" y="0" type="line"/>
			<point x="571" y="0" type="line"/>
			<point x="571" y="36" type="line"/>
			<point x="501" y="50" type="line"/>
			<point x="500" y="100" />
			<point x="499" y="164" />
			<point x="499" y="210" type="curve"/>
			<point x="499" y="303" type="line"/>
			<point x="499" y="434" />
			<point x="457" y="488" />
		</contour>
	</outline>
</glyph>
<glyph name="i" format="1" >
	<unicode hex="000069"/>
	<advance width="298"/>
	<outline>
		<contour>
			<point x="153" y="598" type="curve"/>
			<point x="190" y="598" />
			<point x="220" y="625" />
			<point x="220" y="662" type="curve"/>
			<point x="220" y="701" />
			<point x="190" y="726" />
			<point x="153" y="726" type="curve"/>
			<point x="115" y="726" />
			<point x="86" y="701" />
			<point x="86" y="662" type="curve"/>
			<point x="86" y="625" />
			<point x="115" y="598" />
		</contour>
		<contour>
			<point x="267" y="0" type="line"/>
			<point x="267" y="36" type="line"/>
			<point x="197" y="50" type="line"/>
			<point x="196" y="100" />
			<point x="195" y="166" />
			<point x="195" y="210" type="curve"/>
			<point x="195" y="342" type="line"/>
			<point x="198" y="478" type="line"/>
			<point x="183" y="488" type="line"/>
			<point x="29" y="427" type="line"/>
			<point x="29" y="392" type="line"/>
			<point x="109" y="383" type="line"/>
			<point x="111" y="343" />
			<point x="112" y="312" />
			<point x="112" y="257" type="curve"/>
			<point x="112" y="210" type="line"/>
			<point x="112" y="166" />
			<point x="111" y="100" />
			<point x="110" y="50" type="curve"/>
			<point x="35" y="36" type="line"/>
			<point x="35" y="0" type="line"/>
		</contour>
	</outline>
</glyph>
<glyph name="n" format="1" >
	<unicode hex="00006E"/>
	<advance width="606"/>
	<outline>
		<contour>
			<point x="376" y="488" type="curve"/>
			<point x="314" y="488" />
			<point x="246" y="451" />
			<point x="197" y="397" type="curve"/>
			<point x="189" y="478" type="line"/>
			<point x="174" y="488" type="line"/>
			<point x="34" y="427" type="line"/>
			<point x="34" y="392" type="line"/>
			<point x="113" y="383" type="line"/>
			<point x="115" y="343" />
			<point x="116" y="313" />
			<point x="116" y="258" type="curve"/>
			<point x="116" y="210" type="line"/>
			<point x="116" y="165" />
			<point x="115" y="100" />
			<point x="114" y="50" type="curve"/>
			<point x="40" y="36" type="line"/>
			<point x="40" y="0" type="line"/>
			<point x="272" y="0" type="line"/>
			<point x="272" y="36" type="line"/>
			<point x="203" y="50" type="line"/>
			<point x="202" y="100" />
			<point x="201" y="166" />
			<point x="201" y="210" type="curve"/>
			<point x="201" y="356" type="line"/>
			<point x="252" y="398" />
			<point x="291" y="416" />
			<point x="337" y="416" type="curve"/>
			<point x="396" y="416" />
			<point x="420" y="387" />
			<point x="420" y="295" type="curve"/>
			<point x="420" y="210" type="line"/>
			<point x="420" y="164" />
			<point x="419" y="99" />
			<point x="418" y="50" type="curve"/>
			<point x="344" y="36" type="line"/>
			<point x="344" y="0" type="line"/>
			<point x="576" y="0" type="line"/>
			<point x="576" y="36" type="line"/>
			<point x="506" y="50" type="line"/>
			<point x="505" y="100" />
			<point x="504" y="164" />
			<point x="504" y="210" type="curve"/>
			<point x="504" y="303" type="line"/>
			<point x="504" y="434" />
			<point x="462" y="488" />
		</contour>
	</outline>
</glyph>
<glyph name="q" format="1" >
	<unicode hex="000071"/>
	<advance width="557"/>
	<outline>
		<contour>
			<point x="135" y="234" type="curve"/>
			<point x="135" y="370" />
			<point x="199" y="431" />
			<point x="273" y="431" type="curve"/>
			<point x="307" y="431" />
			<point x="342" y="418" />
			<point x="390" y="376" type="curve"/>
			<point x="390" y="107" type="line"/>
			<point x="351" y="62" />
			<point x="318" y="44" />
			<point x="274" y="44" type="curve"/>
			<point x="194" y="44" />
			<point x="135" y="103" />
		</contour>
		<contour>
			<point x="474" y="-27" type="curve"/>
			<point x="474" y="343" type="line"/>
			<point x="477" y="478" type="line"/>
			<point x="461" y="488" type="line"/>
			<point x="393" y="419" type="line"/>
			<point x="349" y="471" />
			<point x="303" y="488" />
			<point x="255" y="488" type="curve"/>
			<point x="136" y="488" />
			<point x="45" y="385" />
			<point x="45" y="232" type="curve"/>
			<point x="45" y="86" />
			<point x="127" y="-13" />
			<point x="249" y="-13" type="curve"/>
			<point x="308" y="-13" />
			<point x="354" y="11" />
			<point x="393" y="66" type="curve"/>
			<point x="393" y="-27" type="line"/>
			<point x="393" y="-80" />
			<point x="392" y="-135" />
			<point x="391" y="-189" type="curve"/>
			<point x="299" y="-204" type="line"/>
			<point x="299" y="-239" type="line"/>
			<point x="556" y="-239" type="line"/>
			<point x="556" y="-204" type="line"/>
			<point x="476" y="-190" type="line"/>
			<point x="475" y="-135" />
			<point x="474" y="-81" />
		</contour>
	</outline>
</glyph>
<glyph name="r" format="1" >
	<unicode hex="000072"/>
	<advance width="423"/>
	<outline>
		<contour>
			<point x="42" y="0" type="line"/>
			<point x="285" y="0" type="line"/>
			<point x="285" y="36" type="line"/>
			<point x="203" y="51" type="line"/>
			<point x="202" y="101" />
			<point x="201" y="166" />
			<point x="201" y="210" type="curve"/>
			<point x="201" y="285" type="line"/>
			<point x="218" y="342" />
			<point x="244" y="384" />
			<point x="284" y="414" type="curve"/>
			<point x="296" y="403" type="line"/>
			<point x="315" y="387" />
			<point x="334" y="378" />
			<point x="357" y="378" type="curve"/>
			<point x="397" y="378" />
			<point x="416" y="404" />
			<point x="416" y="451" type="curve"/>
			<point x="404" y="473" />
			<point x="374" y="488" />
			<point x="344" y="488" type="curve"/>
			<point x="290" y="488" />
			<point x="233" y="440" />
			<point x="200" y="360" type="curve"/>
			<point x="189" y="478" type="line"/>
			<point x="174" y="488" type="line"/>
			<point x="34" y="427" type="line"/>
			<point x="34" y="392" type="line"/>
			<point x="113" y="383" type="line"/>
			<point x="115" y="343" />
			<point x="116" y="313" />
			<point x="116" y="258" type="curve"/>
			<point x="116" y="210" type="line"/>
			<point x="116" y="165" />
			<point x="115" y="99" />
			<point x="114" y="49" type="curve"/>
			<point x="42" y="36" type="line"/>
		</contour>
	</outline>
</glyph>
<glyph name="t" format="1" >
	<unicode hex="000074"/>
	<advance width="325"/>
	<outline>
		<contour>
			<point x="177" y="112" type="curve"/>
			<point x="177" y="422" type="line"/>
			<point x="313" y="422" type="line"/>
			<point x="313" y="475" type="line"/>
			<point x="179" y="475" type="line"/>
			<point x="184" y="611" type="line"/>
			<point x="124" y="611" type="line"/>
			<point x="98" y="477" type="line"/>
			<point x="9" y="466" type="line"/>
			<point x="9" y="422" type="line"/>
			<point x="92" y="422" type="line"/>
			<point x="92" y="186" type="line"/>
			<point x="92" y="147" />
			<point x="91" y="126" />
			<point x="91" y="101" type="curve"/>
			<point x="91" y="23" />
			<point x="135" y="-13" />
			<point x="205" y="-13" type="curve"/>
			<point x="256" y="-13" />
			<point x="297" y="6" />
			<point x="323" y="40" type="curve"/>
			<point x="299" y="66" type="line"/>
			<point x="274" y="48" />
			<point x="254" y="39" />
			<point x="232" y="39" type="curve"/>
			<point x="198" y="39" />
			<point x="177" y="61" />
		</contour>
	</outline>
</glyph>
<glyph name="v" format="1" >
	<unicode hex="000076"/>
	<advance width="505"/>
	<outline>
		<contour>
			<point x="279" y="-6" type="line"/>
			<point x="441" y="423" type="line"/>
			<point x="496" y="436" type="line"/>
			<point x="496" y="475" type="line"/>
			<point x="306" y="475" type="line"/>
			<point x="306" y="436" type="line"/>
			<point x="388" y="422" type="line"/>
			<point x="276" y="101" type="line"/>
			<point x="154" y="423" type="line"/>
			<point x="242" y="436" type="line"/>
			<point x="242" y="475" type="line"/>
			<point x="0" y="475" type="line"/>
			<point x="0" y="436" type="line"/>
			<point x="54" y="426" type="line"/>
			<point x="236" y="-6" type="line"/>
		</contour>
	</outline>
</glyph>
<glyph name="w" format="1" >
	<unicode hex="000077"/>
	<advance width="764"/>
	<outline>
		<contour>
			<point x="517" y="-6" type="curve"/>
			<point x="554" y="-6" type="line"/>
			<point x="700" y="423" type="line"/>
			<point x="754" y="436" type="line"/>
			<point x="754" y="475" type="line"/>
			<point x="571" y="475" type="line"/>
			<point x="571" y="436" type="line"/>
			<point x="645" y="422" type="line"/>
			<point x="551" y="120" type="line"/>
			<point x="438" y="423" type="line"/>
			<point x="512" y="436" type="line"/>
			<point x="512" y="475" type="line"/>
			<point x="291" y="475" type="line"/>
			<point x="291" y="436" type="line"/>
			<point x="365" y="424" type="line"/>
			<point x="253" y="117" type="line"/>
			<point x="150" y="424" type="line"/>
			<point x="228" y="436" type="line"/>
			<point x="228" y="475" type="line"/>
			<point x="0" y="475" type="line"/>
			<point x="0" y="436" type="line"/>
			<point x="57" y="426" type="line"/>
			<point x="218" y="-6" type="line"/>
			<point x="255" y="-6" type="line"/>
			<point x="386" y="349" type="line"/>
			<point x="409" y="281" />
			<point x="441" y="188" />
		</contour>
	</outline>
</glyph>
<glyph name=".notdef" format="1" >
	<advance width="640"/>
	<outline>
		<contour>
			<point x="80" y="0" type="line"/>
			<point x="560" y="0" type="line"/>
			<point x="560" y="669" type="line"/>
			<point x="80" y="669" type="line"/>
		</contour>
		<contour>
			<point x="320" y="383" type="line"/>
			<point x="172" y="619" type="line"/>
			<point x="468" y="619" type="line"/>
		</contour>
		<contour>
			<point x="500" y="96" type="line"/>
			<point x="351" y="335" type="line"/>
			<point x="500" y="573" type="line"/>
		</contour>
		<contour>
			<point x="140" y="96" type="line"/>
			<point x="140" y="573" type="line"/>
			<point x="290" y="335" type="line"/>
		</contour>
		<contour>
			<point x="172" y="50" type="line"/>
			<point x="320" y="286" type="line"/>
			<point x="468" y="50" type="line"/>
		</contour>
	</outline>
</glyph>
